<?xml version="1.0" encoding="UTF-8"?><svg id="a" xmlns="http://www.w3.org/2000/svg" viewBox="0 0 16 16"><defs><style>.b{fill:#d6f050;}.c{fill:#9b71f6;}</style></defs><rect class="c" x="0" y="0" width="16" height="16" rx="7.836" ry="7.836"/><g><path class="b" d="m14.327,7.29c.509.315.509,1.104,0,1.419l-4.011,2.483c-.509.315-1.146-.079-1.146-.71v-4.967c0-.631.637-1.025,1.146-.71l4.011,2.483Z"/><path class="b" d="m1.396,7.692c0-.447.348-.809.777-.809h0c.429,0,.777.362.777.809v.617c0,.447-.348.809-.777.809h0c-.429,0-.777-.362-.777-.809v-.617Z"/><path class="b" d="m6.547,4.619c0-.441.348-.798.777-.798s.777.357.777.798v6.762c0,.441-.348.798-.777.798s-.777-.357-.777-.798v-6.762Z"/><path class="b" d="m3.923,6.004c0-.454.348-.822.777-.822s.777.368.777.822v3.992c0,.454-.348.822-.777.822s-.777-.368-.777-.822v-3.992Z"/></g></svg>