<svg width="493" height="100" viewBox="0 0 493 100" fill="none" xmlns="http://www.w3.org/2000/svg">
<path d="M157.16 79.2C152.92 79.2 148.8 78.5733 144.8 77.32C140.8 76.0667 137.413 74.2533 134.64 71.88L140.88 61.96C142.053 63.2133 143.547 64.2933 145.36 65.2C147.173 66.1067 149.107 66.8133 151.16 67.32C153.24 67.8 155.253 68.04 157.2 68.04C159.947 68.04 162.173 67.5867 163.88 66.68C165.613 65.7467 166.48 64.4 166.48 62.64C166.48 61.2 165.853 59.9867 164.6 59C163.373 58.0133 161.067 57.0667 157.68 56.16L152.88 54.8C147.12 53.2 142.973 51.0133 140.44 48.24C137.907 45.4667 136.64 42.1333 136.64 38.24C136.64 35.7333 137.173 33.4267 138.24 31.32C139.307 29.1867 140.8 27.3467 142.72 25.8C144.64 24.2267 146.893 23.0133 149.48 22.16C152.093 21.28 154.933 20.84 158 20.84C162.24 20.84 166.173 21.4667 169.8 22.72C173.453 23.9467 176.387 25.6267 178.6 27.76L172.12 37.36C171.107 36.2933 169.853 35.36 168.36 34.56C166.867 33.76 165.24 33.1333 163.48 32.68C161.72 32.2267 159.947 32 158.16 32C156.4 32 154.867 32.2267 153.56 32.68C152.253 33.1333 151.227 33.7867 150.48 34.64C149.76 35.4667 149.4 36.4533 149.4 37.6C149.4 38.5333 149.667 39.32 150.2 39.96C150.76 40.5733 151.68 41.16 152.96 41.72C154.267 42.28 156.027 42.8933 158.24 43.56L163.12 45C168.853 46.68 173 48.7867 175.56 51.32C178.12 53.8533 179.4 57.1467 179.4 61.2C179.4 64.7467 178.493 67.88 176.68 70.6C174.867 73.2933 172.293 75.4 168.96 76.92C165.653 78.44 161.72 79.2 157.16 79.2ZM207.014 79.2C202.56 79.2 198.627 78.2267 195.214 76.28C191.8 74.3067 189.12 71.68 187.174 68.4C185.254 65.12 184.294 61.52 184.294 57.6C184.294 54.7467 184.84 52.0267 185.934 49.44C187.054 46.8267 188.627 44.52 190.654 42.52C192.68 40.4933 195.08 38.9067 197.854 37.76C200.627 36.5867 203.68 36 207.014 36C211.467 36 215.4 36.9867 218.814 38.96C222.227 40.9067 224.894 43.52 226.814 46.8C228.734 50.08 229.694 53.68 229.694 57.6C229.694 60.4533 229.147 63.1867 228.054 65.8C226.96 68.3867 225.4 70.68 223.374 72.68C221.347 74.68 218.947 76.2667 216.174 77.44C213.4 78.6133 210.347 79.2 207.014 79.2ZM207.014 67.92C208.88 67.92 210.56 67.5067 212.054 66.68C213.547 65.8267 214.72 64.6267 215.574 63.08C216.427 61.5333 216.854 59.7067 216.854 57.6C216.854 55.4667 216.427 53.64 215.574 52.12C214.747 50.5733 213.587 49.3867 212.094 48.56C210.6 47.7067 208.907 47.28 207.014 47.28C205.12 47.28 203.427 47.7067 201.934 48.56C200.44 49.3867 199.267 50.5733 198.414 52.12C197.56 53.64 197.134 55.4667 197.134 57.6C197.134 59.7067 197.56 61.5333 198.414 63.08C199.294 64.6267 200.48 65.8267 201.974 66.68C203.467 67.5067 205.147 67.92 207.014 67.92ZM253.378 79.2C249.671 79.2 246.604 78.48 244.178 77.04C241.751 75.5733 239.938 73.56 238.738 71C237.564 68.4133 236.978 65.4133 236.978 62V37.2H250.098V60.04C250.098 62.28 250.684 64.0533 251.858 65.36C253.058 66.6667 254.791 67.32 257.058 67.32C258.524 67.32 259.804 67 260.898 66.36C262.018 65.6933 262.871 64.7867 263.458 63.64C264.071 62.4933 264.378 61.16 264.378 59.64V37.2H277.498V78H266.178V73.68C264.871 75.1467 263.218 76.44 261.218 77.56C259.218 78.6533 256.604 79.2 253.378 79.2ZM288.393 78V37.2H301.513V41.52C303.033 39.6 304.833 38.2 306.913 37.32C308.993 36.44 311.18 36 313.473 36C317.313 36 320.473 36.76 322.953 38.28C325.433 39.7733 327.26 41.72 328.433 44.12C329.633 46.4933 330.233 49.0133 330.233 51.68V78H317.113V55.8C317.113 53.3467 316.46 51.4133 315.153 50C313.873 48.5867 311.98 47.88 309.473 47.88C307.873 47.88 306.473 48.2267 305.273 48.92C304.1 49.6133 303.18 50.6 302.513 51.88C301.846 53.1333 301.513 54.5733 301.513 56.2V78H288.393ZM357.777 79.2C353.91 79.2 350.444 78.3067 347.377 76.52C344.31 74.7067 341.897 72.1867 340.137 68.96C338.377 65.7067 337.497 61.92 337.497 57.6C337.497 54.5333 338.004 51.6933 339.017 49.08C340.03 46.4667 341.444 44.1867 343.257 42.24C345.097 40.2667 347.27 38.7333 349.777 37.64C352.284 36.5467 355.03 36 358.017 36C361.137 36 363.95 36.6133 366.457 37.84C368.964 39.0667 371.15 40.8933 373.017 43.32L370.017 46.32V20.4H383.137V78H371.817V67.4L373.617 70.36C372.444 72.9733 370.484 75.1067 367.737 76.76C364.99 78.3867 361.67 79.2 357.777 79.2ZM360.217 67.92C362.084 67.92 363.764 67.5067 365.257 66.68C366.75 65.8267 367.924 64.6267 368.777 63.08C369.63 61.5333 370.057 59.7067 370.057 57.6C370.057 55.4667 369.63 53.64 368.777 52.12C367.95 50.5733 366.79 49.3867 365.297 48.56C363.804 47.7067 362.11 47.28 360.217 47.28C358.324 47.28 356.63 47.7067 355.137 48.56C353.644 49.3867 352.47 50.5733 351.617 52.12C350.764 53.64 350.337 55.4667 350.337 57.6C350.337 59.7067 350.764 61.5333 351.617 63.08C352.497 64.6267 353.684 65.8267 355.177 66.68C356.67 67.5067 358.35 67.92 360.217 67.92ZM394.018 78V37.2H407.138V78H394.018ZM400.578 31.16C398.471 31.16 396.631 30.5067 395.058 29.2C393.511 27.8667 392.738 26.0933 392.738 23.88C392.738 21.6133 393.511 19.8267 395.058 18.52C396.631 17.2133 398.471 16.56 400.578 16.56C402.711 16.56 404.551 17.2133 406.098 18.52C407.645 19.8267 408.418 21.6133 408.418 23.88C408.418 26.0933 407.645 27.8667 406.098 29.2C404.551 30.5067 402.711 31.16 400.578 31.16ZM421.481 78V33.48C421.481 29.1333 422.774 25.6667 425.361 23.08C427.974 20.4933 431.694 19.2 436.521 19.2C438.094 19.2 439.614 19.36 441.081 19.68C442.547 20 443.987 20.5067 445.401 21.2L443.481 31.16C442.707 30.7333 441.961 30.44 441.241 30.28C440.547 30.12 439.881 30.04 439.241 30.04C437.801 30.04 436.654 30.3733 435.801 31.04C434.974 31.7067 434.561 32.7467 434.561 34.16V37.2H444.521V47.6H434.561V78H421.481ZM414.361 47.6V37.2H422.681V47.6H414.361ZM457.676 95.88C455.81 95.88 453.983 95.6933 452.196 95.32C450.41 94.9467 448.77 94.3467 447.276 93.52L450.036 82.56C450.916 83.0133 451.876 83.3733 452.916 83.64C453.956 83.9067 454.93 84.04 455.836 84.04C457.303 84.04 458.543 83.7333 459.556 83.12C460.596 82.5067 461.343 81.4933 461.796 80.08L462.396 78.16L446.556 37.2H460.796L469.836 65.16L478.596 37.2H492.476L475.556 82.04C474.17 85.5067 472.556 88.24 470.716 90.24C468.903 92.2667 466.89 93.7067 464.676 94.56C462.463 95.44 460.13 95.88 457.676 95.88Z" fill="#1E1E1E"/>
<path d="M95.2069 44.9282C98.931 47.2047 98.931 52.8957 95.2069 55.1721L65.8793 73.099C62.1552 75.3754 57.5 72.5299 57.5 67.977L57.5 32.1233C57.5 27.5705 62.1552 24.725 65.8793 27.0014L95.2069 44.9282Z" fill="#1E1E1E"/>
<path d="M-1.28799e-06 47.9396C-1.28799e-06 44.8801 2.41766 42.3999 5.4 42.3999C8.38234 42.3999 10.8 44.8801 10.8 47.9396L10.8 52.1602C10.8 55.2197 8.38234 57.6999 5.4 57.6999C2.41766 57.6999 -1.47583e-06 55.2197 -1.47583e-06 52.1602L-1.28799e-06 47.9396Z" fill="#1E1E1E"/>
<path d="M36 24.9277C36 21.6539 39.2236 19 43.2 19C47.1765 19 50.4 21.6539 50.4 24.9277L50.4 75.1723C50.4 78.4461 47.1764 81.1 43.2 81.1C39.2235 81.1 36 78.4461 36 75.1723L36 24.9277Z" fill="#1E1E1E"/>
<path d="M18 33.9062C18 30.6443 20.4177 28 23.4 28C26.3823 28 28.8 30.6443 28.8 33.9062L28.8 62.5937C28.8 65.8557 26.3823 68.5 23.4 68.5C20.4177 68.5 18 65.8557 18 62.5937L18 33.9062Z" fill="#1E1E1E"/>
</svg>
