<svg width="900" height="323" viewBox="0 0 900 323" fill="none" xmlns="http://www.w3.org/2000/svg">
<g clip-path="url(#clip0_58_1431)">
<rect width="900" height="323" rx="20" fill="#9B71F6"/>
<path d="M253.069 156.698C258.31 159.943 258.31 168.057 253.069 171.302L211.793 196.858C206.552 200.103 200 196.047 200 189.556L200 138.444C200 131.953 206.552 127.897 211.793 131.142L253.069 156.698Z" fill="#D6F050"/>
<path d="M120 160.328C120 155.728 123.582 152 128 152V152C132.418 152 136 155.728 136 160.328V166.672C136 171.272 132.418 175 128 175V175C123.582 175 120 171.272 120 166.672V160.328Z" fill="#D6F050"/>
<path d="M173 129.209C173 124.675 176.582 121 181 121C185.418 121 189 124.675 189 129.209V198.791C189 203.325 185.418 207 181 207C176.582 207 173 203.325 173 198.791V129.209Z" fill="#D6F050"/>
<path d="M146 141.458C146 136.787 149.582 133 154 133C158.418 133 162 136.787 162 141.458V182.542C162 187.213 158.418 191 154 191C149.582 191 146 187.213 146 182.542V141.458Z" fill="#D6F050"/>
<path d="M360.7 200.5C355.4 200.5 350.25 199.717 345.25 198.15C340.25 196.583 336.017 194.317 332.55 191.35L340.35 178.95C341.817 180.517 343.683 181.867 345.95 183C348.217 184.133 350.633 185.017 353.2 185.65C355.8 186.25 358.317 186.55 360.75 186.55C364.183 186.55 366.967 185.983 369.1 184.85C371.267 183.683 372.35 182 372.35 179.8C372.35 178 371.567 176.483 370 175.25C368.467 174.017 365.583 172.833 361.35 171.7L355.35 170C348.15 168 342.967 165.267 339.8 161.8C336.633 158.333 335.05 154.167 335.05 149.3C335.05 146.167 335.717 143.283 337.05 140.65C338.383 137.983 340.25 135.683 342.65 133.75C345.05 131.783 347.867 130.267 351.1 129.2C354.367 128.1 357.917 127.55 361.75 127.55C367.05 127.55 371.967 128.333 376.5 129.9C381.067 131.433 384.733 133.533 387.5 136.2L379.4 148.2C378.133 146.867 376.567 145.7 374.7 144.7C372.833 143.7 370.8 142.917 368.6 142.35C366.4 141.783 364.183 141.5 361.95 141.5C359.75 141.5 357.833 141.783 356.2 142.35C354.567 142.917 353.283 143.733 352.35 144.8C351.45 145.833 351 147.067 351 148.5C351 149.667 351.333 150.65 352 151.45C352.7 152.217 353.85 152.95 355.45 153.65C357.083 154.35 359.283 155.117 362.05 155.95L368.15 157.75C375.317 159.85 380.5 162.483 383.7 165.65C386.9 168.817 388.5 172.933 388.5 178C388.5 182.433 387.367 186.35 385.1 189.75C382.833 193.117 379.617 195.75 375.45 197.65C371.317 199.55 366.4 200.5 360.7 200.5ZM423.017 200.5C417.451 200.5 412.534 199.283 408.267 196.85C404.001 194.383 400.651 191.1 398.217 187C395.817 182.9 394.617 178.4 394.617 173.5C394.617 169.933 395.301 166.533 396.667 163.3C398.067 160.033 400.034 157.15 402.567 154.65C405.101 152.117 408.101 150.133 411.567 148.7C415.034 147.233 418.851 146.5 423.017 146.5C428.584 146.5 433.501 147.733 437.767 150.2C442.034 152.633 445.367 155.9 447.767 160C450.167 164.1 451.367 168.6 451.367 173.5C451.367 177.067 450.684 180.483 449.317 183.75C447.951 186.983 446.001 189.85 443.467 192.35C440.934 194.85 437.934 196.833 434.467 198.3C431.001 199.767 427.184 200.5 423.017 200.5ZM423.017 186.4C425.351 186.4 427.451 185.883 429.317 184.85C431.184 183.783 432.651 182.283 433.717 180.35C434.784 178.417 435.317 176.133 435.317 173.5C435.317 170.833 434.784 168.55 433.717 166.65C432.684 164.717 431.234 163.233 429.367 162.2C427.501 161.133 425.384 160.6 423.017 160.6C420.651 160.6 418.534 161.133 416.667 162.2C414.801 163.233 413.334 164.717 412.267 166.65C411.201 168.55 410.667 170.833 410.667 173.5C410.667 176.133 411.201 178.417 412.267 180.35C413.367 182.283 414.851 183.783 416.717 184.85C418.584 185.883 420.684 186.4 423.017 186.4ZM480.972 200.5C476.339 200.5 472.505 199.6 469.472 197.8C466.439 195.967 464.172 193.45 462.672 190.25C461.205 187.017 460.472 183.267 460.472 179V148H476.872V176.55C476.872 179.35 477.605 181.567 479.072 183.2C480.572 184.833 482.739 185.65 485.572 185.65C487.405 185.65 489.005 185.25 490.372 184.45C491.772 183.617 492.839 182.483 493.572 181.05C494.339 179.617 494.722 177.95 494.722 176.05V148H511.122V199H496.972V193.6C495.339 195.433 493.272 197.05 490.772 198.45C488.272 199.817 485.005 200.5 480.972 200.5ZM524.741 199V148H541.141V153.4C543.041 151 545.291 149.25 547.891 148.15C550.491 147.05 553.225 146.5 556.091 146.5C560.891 146.5 564.841 147.45 567.941 149.35C571.041 151.217 573.325 153.65 574.791 156.65C576.291 159.617 577.041 162.767 577.041 166.1V199H560.641V171.25C560.641 168.183 559.825 165.767 558.191 164C556.591 162.233 554.225 161.35 551.091 161.35C549.091 161.35 547.341 161.783 545.841 162.65C544.375 163.517 543.225 164.75 542.391 166.35C541.558 167.917 541.141 169.717 541.141 171.75V199H524.741ZM611.471 200.5C606.638 200.5 602.304 199.383 598.471 197.15C594.638 194.883 591.621 191.733 589.421 187.7C587.221 183.633 586.121 178.9 586.121 173.5C586.121 169.667 586.754 166.117 588.021 162.85C589.288 159.583 591.054 156.733 593.321 154.3C595.621 151.833 598.338 149.917 601.471 148.55C604.604 147.183 608.038 146.5 611.771 146.5C615.671 146.5 619.188 147.267 622.321 148.8C625.454 150.333 628.188 152.617 630.521 155.65L626.771 159.4V127H643.171V199H629.021V185.75L631.271 189.45C629.804 192.717 627.354 195.383 623.921 197.45C620.488 199.483 616.338 200.5 611.471 200.5ZM614.521 186.4C616.854 186.4 618.954 185.883 620.821 184.85C622.688 183.783 624.154 182.283 625.221 180.35C626.288 178.417 626.821 176.133 626.821 173.5C626.821 170.833 626.288 168.55 625.221 166.65C624.188 164.717 622.738 163.233 620.871 162.2C619.004 161.133 616.888 160.6 614.521 160.6C612.154 160.6 610.038 161.133 608.171 162.2C606.304 163.233 604.838 164.717 603.771 166.65C602.704 168.55 602.171 170.833 602.171 173.5C602.171 176.133 602.704 178.417 603.771 180.35C604.871 182.283 606.354 183.783 608.221 184.85C610.088 185.883 612.188 186.4 614.521 186.4ZM656.773 199V148H673.173V199H656.773ZM664.973 140.45C662.339 140.45 660.039 139.633 658.073 138C656.139 136.333 655.173 134.117 655.173 131.35C655.173 128.517 656.139 126.283 658.073 124.65C660.039 123.017 662.339 122.2 664.973 122.2C667.639 122.2 669.939 123.017 671.873 124.65C673.806 126.283 674.773 128.517 674.773 131.35C674.773 134.117 673.806 136.333 671.873 138C669.939 139.633 667.639 140.45 664.973 140.45ZM691.101 199V143.35C691.101 137.917 692.717 133.583 695.951 130.35C699.217 127.117 703.867 125.5 709.901 125.5C711.867 125.5 713.767 125.7 715.601 126.1C717.434 126.5 719.234 127.133 721.001 128L718.601 140.45C717.634 139.917 716.701 139.55 715.801 139.35C714.934 139.15 714.101 139.05 713.301 139.05C711.501 139.05 710.067 139.467 709.001 140.3C707.967 141.133 707.451 142.433 707.451 144.2V148H719.901V161H707.451V199H691.101ZM682.201 161V148H692.601V161H682.201ZM736.345 221.35C734.012 221.35 731.729 221.117 729.495 220.65C727.262 220.183 725.212 219.433 723.345 218.4L726.795 204.7C727.895 205.267 729.095 205.717 730.395 206.05C731.695 206.383 732.912 206.55 734.045 206.55C735.879 206.55 737.429 206.167 738.695 205.4C739.995 204.633 740.929 203.367 741.495 201.6L742.245 199.2L722.445 148H740.245L751.545 182.95L762.495 148H779.845L758.695 204.05C756.962 208.383 754.945 211.8 752.645 214.3C750.379 216.833 747.862 218.633 745.095 219.7C742.329 220.8 739.412 221.35 736.345 221.35Z" fill="#D6F050"/>
</g>
<defs>
<clipPath id="clip0_58_1431">
<rect width="900" height="323" rx="20" fill="white"/>
</clipPath>
</defs>
</svg>
