<svg width="647" height="98" viewBox="0 0 647 98" fill="none" xmlns="http://www.w3.org/2000/svg">
<g clip-path="url(#clip0_58_1431)">
<rect width="647" height="98" fill="white"/>
<path d="M133.069 35.6983C138.31 38.9435 138.31 47.0565 133.069 50.3017L91.7931 75.8578C86.5517 79.103 80 75.0465 80 68.5561L80 17.4439C80 10.9535 86.5517 6.89694 91.7931 10.1422L133.069 35.6983Z" fill="#8A8A8A"/>
<path d="M0 39.3276C0 34.7284 3.58172 31 8 31V31C12.4183 31 16 34.7284 16 39.3276V45.6724C16 50.2716 12.4183 54 8 54V54C3.58172 54 0 50.2716 0 45.6724V39.3276Z" fill="#8A8A8A"/>
<path d="M53 8.20909C53 3.67534 56.5817 0 61 0C65.4183 0 69 3.67534 69 8.20909V77.7909C69 82.3247 65.4183 86 61 86C56.5817 86 53 82.3247 53 77.7909V8.20909Z" fill="#8A8A8A"/>
<path d="M253.774 25.1889C253.49 22.3243 252.271 20.099 250.116 18.5128C247.962 16.9266 245.038 16.1335 241.345 16.1335C238.836 16.1335 236.717 16.4886 234.989 17.1989C233.26 17.8854 231.935 18.8442 231.011 20.0753C230.112 21.3063 229.662 22.7031 229.662 24.2656C229.615 25.5677 229.887 26.7041 230.479 27.6747C231.094 28.6454 231.935 29.4858 233 30.196C234.065 30.8826 235.296 31.4863 236.693 32.0071C238.09 32.5043 239.581 32.9304 241.168 33.2855L247.702 34.848C250.874 35.5582 253.786 36.5052 256.438 37.6889C259.089 38.8726 261.385 40.3286 263.327 42.0568C265.268 43.785 266.771 45.821 267.837 48.1648C268.926 50.5085 269.482 53.1955 269.506 56.2259C269.482 60.6766 268.346 64.5355 266.097 67.8026C263.871 71.0459 260.652 73.5672 256.438 75.3665C252.247 77.142 247.193 78.0298 241.274 78.0298C235.403 78.0298 230.289 77.1302 225.933 75.331C221.601 73.5317 218.215 70.8684 215.777 67.3409C213.362 63.7898 212.096 59.3982 211.977 54.1662H226.857C227.022 56.6046 227.721 58.6406 228.952 60.2741C230.206 61.884 231.875 63.1032 233.959 63.9318C236.066 64.7367 238.445 65.1392 241.097 65.1392C243.701 65.1392 245.962 64.7604 247.879 64.0028C249.821 63.2453 251.324 62.1918 252.389 60.8423C253.455 59.4929 253.987 57.9422 253.987 56.1903C253.987 54.5568 253.502 53.1837 252.531 52.071C251.584 50.9583 250.188 50.0114 248.341 49.2301C246.518 48.4489 244.281 47.7386 241.629 47.0994L233.71 45.1108C227.579 43.6193 222.737 41.2874 219.186 38.1151C215.635 34.9427 213.871 30.6695 213.895 25.2955C213.871 20.892 215.043 17.045 217.411 13.7543C219.802 10.4635 223.08 7.89489 227.247 6.04829C231.414 4.2017 236.149 3.27841 241.452 3.27841C246.849 3.27841 251.561 4.2017 255.585 6.04829C259.634 7.89489 262.782 10.4635 265.031 13.7543C267.28 17.045 268.44 20.8565 268.511 25.1889H253.774ZM304.209 78.0653C298.693 78.0653 293.923 76.8935 289.898 74.5497C285.897 72.1823 282.808 68.8916 280.63 64.6776C278.452 60.4399 277.363 55.5275 277.363 49.9403C277.363 44.3059 278.452 39.3816 280.63 35.1676C282.808 30.9299 285.897 27.6392 289.898 25.2955C293.923 22.928 298.693 21.7443 304.209 21.7443C309.725 21.7443 314.484 22.928 318.485 25.2955C322.509 27.6392 325.611 30.9299 327.789 35.1676C329.967 39.3816 331.056 44.3059 331.056 49.9403C331.056 55.5275 329.967 60.4399 327.789 64.6776C325.611 68.8916 322.509 72.1823 318.485 74.5497C314.484 76.8935 309.725 78.0653 304.209 78.0653ZM304.28 66.3466C306.79 66.3466 308.885 65.6364 310.566 64.2159C312.247 62.7718 313.513 60.8068 314.365 58.321C315.241 55.8352 315.679 53.0062 315.679 49.8338C315.679 46.6615 315.241 43.8324 314.365 41.3466C313.513 38.8608 312.247 36.8958 310.566 35.4517C308.885 34.0076 306.79 33.2855 304.28 33.2855C301.747 33.2855 299.616 34.0076 297.888 35.4517C296.184 36.8958 294.893 38.8608 294.017 41.3466C293.165 43.8324 292.739 46.6615 292.739 49.8338C292.739 53.0062 293.165 55.8352 294.017 58.321C294.893 60.8068 296.184 62.7718 297.888 64.2159C299.616 65.6364 301.747 66.3466 304.28 66.3466ZM375.871 53.7756V22.4545H390.999V77H376.475V67.0923H375.907C374.676 70.2884 372.628 72.857 369.763 74.7983C366.922 76.7396 363.454 77.7102 359.358 77.7102C355.712 77.7102 352.505 76.8816 349.735 75.2244C346.965 73.5672 344.799 71.2116 343.236 68.1577C341.697 65.1037 340.916 61.446 340.892 57.1847V22.4545H356.02V54.4858C356.044 57.7055 356.908 60.2505 358.613 62.1207C360.317 63.991 362.602 64.9261 365.466 64.9261C367.289 64.9261 368.994 64.5118 370.58 63.6832C372.166 62.831 373.444 61.5762 374.415 59.919C375.409 58.2618 375.895 56.214 375.871 53.7756ZM418.227 45.4659V77H403.099V22.4545H417.517V32.0781H418.156C419.364 28.9058 421.388 26.3963 424.229 24.5497C427.07 22.6795 430.514 21.7443 434.562 21.7443C438.35 21.7443 441.653 22.5729 444.47 24.2301C447.287 25.8873 449.477 28.2547 451.04 31.3324C452.602 34.3864 453.384 38.0322 453.384 42.2699V77H438.256V44.9688C438.279 41.6307 437.427 39.0265 435.699 37.1562C433.971 35.2623 431.591 34.3153 428.561 34.3153C426.525 34.3153 424.726 34.7533 423.163 35.6293C421.625 36.5052 420.417 37.7836 419.541 39.4645C418.689 41.1217 418.251 43.1222 418.227 45.4659ZM485.406 77.8878C481.263 77.8878 477.511 76.8224 474.149 74.6918C470.811 72.5374 468.159 69.3769 466.194 65.2102C464.253 61.0199 463.282 55.8826 463.282 49.7983C463.282 43.5483 464.288 38.3518 466.301 34.2088C468.313 30.0421 470.988 26.929 474.326 24.8693C477.688 22.786 481.369 21.7443 485.37 21.7443C488.424 21.7443 490.969 22.2652 493.005 23.3068C495.065 24.3248 496.722 25.6032 497.977 27.142C499.255 28.6572 500.226 30.1487 500.889 31.6165H501.35V4.27273H516.443V77H501.528V68.2642H500.889C500.179 69.7794 499.172 71.2827 497.87 72.7741C496.592 74.242 494.923 75.4612 492.863 76.4318C490.827 77.4025 488.342 77.8878 485.406 77.8878ZM490.2 65.8494C492.638 65.8494 494.698 65.1866 496.379 63.8608C498.083 62.5114 499.386 60.6293 500.285 58.2145C501.208 55.7997 501.67 52.9706 501.67 49.7273C501.67 46.4839 501.22 43.6667 500.321 41.2756C499.421 38.8845 498.119 37.0379 496.414 35.7358C494.71 34.4337 492.638 33.7827 490.2 33.7827C487.714 33.7827 485.619 34.4574 483.914 35.8068C482.21 37.1562 480.92 39.0265 480.044 41.4176C479.168 43.8087 478.73 46.5786 478.73 49.7273C478.73 52.8996 479.168 55.705 480.044 58.1435C480.943 60.5582 482.234 62.4522 483.914 63.8253C485.619 65.1747 487.714 65.8494 490.2 65.8494ZM528.881 77V22.4545H544.009V77H528.881ZM536.48 15.4233C534.231 15.4233 532.302 14.6776 530.692 13.1861C529.106 11.6709 528.312 9.85985 528.312 7.75284C528.312 5.6695 529.106 3.8821 530.692 2.39062C532.302 0.875471 534.231 0.117894 536.48 0.117894C538.729 0.117894 540.647 0.875471 542.233 2.39062C543.843 3.8821 544.648 5.6695 544.648 7.75284C544.648 9.85985 543.843 11.6709 542.233 13.1861C540.647 14.6776 538.729 15.4233 536.48 15.4233ZM585.459 22.4545V33.8182H551.794V22.4545H585.459ZM559.5 77V18.5128C559.5 14.5592 560.27 11.2803 561.809 8.67613C563.371 6.07196 565.502 4.11884 568.201 2.81676C570.9 1.51467 573.965 0.863631 577.398 0.863631C579.718 0.863631 581.837 1.04119 583.755 1.39631C585.696 1.75142 587.14 2.07102 588.087 2.35511L585.388 13.7188C584.796 13.5294 584.062 13.3518 583.186 13.1861C582.334 13.0204 581.458 12.9375 580.559 12.9375C578.333 12.9375 576.783 13.4583 575.907 14.5C575.031 15.518 574.593 16.9503 574.593 18.7969V77H559.5ZM604.04 97.4545C602.123 97.4545 600.324 97.3007 598.643 96.9929C596.986 96.7088 595.612 96.3419 594.523 95.892L597.933 84.5994C599.708 85.1439 601.306 85.4399 602.727 85.4872C604.171 85.5346 605.414 85.2031 606.455 84.4929C607.521 83.7827 608.385 82.5753 609.048 80.8707L609.935 78.5625L590.369 22.4545H606.278L617.57 62.5114H618.138L629.538 22.4545H645.553L624.353 82.8949C623.335 85.8305 621.95 88.3873 620.198 90.5653C618.47 92.767 616.28 94.4598 613.629 95.6435C610.977 96.8509 607.781 97.4545 604.04 97.4545Z" fill="#8A8A8A"/>
<path d="M26 20.4583C26 15.7869 29.5817 12 34 12C38.4183 12 42 15.7869 42 20.4583V61.5417C42 66.2131 38.4183 70 34 70C29.5817 70 26 66.2131 26 61.5417V20.4583Z" fill="#8A8A8A"/>
</g>
<defs>
<clipPath id="clip0_58_1431">
<rect width="647" height="98" fill="white"/>
</clipPath>
</defs>
</svg>
