<svg width="120" height="40" viewBox="0 0 120 40" fill="none" xmlns="http://www.w3.org/2000/svg">
<path d="M31.3352 18.187C32.0968 18.6586 32.0968 19.8374 31.3352 20.3089L25.3377 24.0223C24.5761 24.4938 23.6242 23.9044 23.6242 22.9613L23.6242 15.5346C23.6242 14.5916 24.5761 14.0021 25.3377 14.4737L31.3352 18.187Z" fill="#D6F050"/>
<path d="M12 18.7144C12 18.0461 12.5204 17.5044 13.1624 17.5044V17.5044C13.8044 17.5044 14.3248 18.0461 14.3248 18.7144V19.6363C14.3248 20.3046 13.8044 20.8463 13.1624 20.8463V20.8463C12.5204 20.8463 12 20.3046 12 19.6363V18.7144Z" fill="#D6F050"/>
<path d="M19.701 14.1928C19.701 13.534 20.2215 13 20.8635 13C21.5054 13 22.0259 13.534 22.0259 14.1928V24.3032C22.0259 24.9619 21.5054 25.496 20.8635 25.496C20.2215 25.496 19.701 24.9619 19.701 24.3032V14.1928Z" fill="#D6F050"/>
<path d="M15.7778 15.9726C15.7778 15.2939 16.2983 14.7436 16.9402 14.7436C17.5822 14.7436 18.1027 15.2939 18.1027 15.9726V21.9421C18.1027 22.6209 17.5822 23.1711 16.9402 23.1711C16.2983 23.1711 15.7778 22.6209 15.7778 21.9421V15.9726Z" fill="#D6F050"/>
<path d="M47.0907 24.8457C46.3205 24.8457 45.5721 24.7272 44.8455 24.4902C44.1189 24.2532 43.5038 23.9102 43 23.4614L44.1335 21.5855C44.3466 21.8225 44.6179 22.0267 44.9473 22.1982C45.2766 22.3696 45.6278 22.5033 46.0008 22.5991C46.3786 22.6899 46.7444 22.7353 47.098 22.7353C47.5969 22.7353 48.0014 22.6495 48.3114 22.4781C48.6262 22.3016 48.7837 22.0469 48.7837 21.7141C48.7837 21.4418 48.6698 21.2123 48.4422 21.0257C48.2193 20.8391 47.8003 20.6601 47.1852 20.4887L46.3132 20.2315C45.267 19.9289 44.5137 19.5154 44.0536 18.9909C43.5934 18.4665 43.3633 17.8361 43.3633 17.0998C43.3633 16.6258 43.4602 16.1896 43.6539 15.7912C43.8477 15.3878 44.1189 15.0398 44.4677 14.7474C44.8165 14.4498 45.2258 14.2204 45.6956 14.059C46.1704 13.8926 46.6862 13.8094 47.2433 13.8094C48.0135 13.8094 48.7279 13.9279 49.3867 14.1649C50.0503 14.3969 50.5832 14.7146 50.9852 15.118L49.8081 16.9334C49.6241 16.7317 49.3964 16.5552 49.1251 16.4039C48.8539 16.2526 48.5584 16.1341 48.2387 16.0484C47.919 15.9627 47.5969 15.9198 47.2723 15.9198C46.9526 15.9198 46.6741 15.9627 46.4368 16.0484C46.1994 16.1341 46.0129 16.2577 45.8773 16.4191C45.7465 16.5754 45.6811 16.762 45.6811 16.9788C45.6811 17.1553 45.7296 17.3041 45.8264 17.4251C45.9282 17.5411 46.0953 17.652 46.3278 17.7579C46.5651 17.8638 46.8848 17.9798 47.2869 18.1059L48.1733 18.3782C49.2148 18.6959 49.968 19.0943 50.433 19.5734C50.898 20.0524 51.1305 20.6752 51.1305 21.4418C51.1305 22.1125 50.9658 22.705 50.6365 23.2194C50.3071 23.7287 49.8396 24.1271 49.2341 24.4145C48.6335 24.702 47.919 24.8457 47.0907 24.8457Z" fill="#D6F050"/>
<path d="M56.1465 24.8457C55.3376 24.8457 54.6231 24.6616 54.0031 24.2935C53.383 23.9203 52.8962 23.4236 52.5426 22.8033C52.1939 22.1831 52.0195 21.5023 52.0195 20.761C52.0195 20.2214 52.1188 19.707 52.3174 19.2179C52.5208 18.7237 52.8066 18.2874 53.1747 17.9092C53.5429 17.526 53.9788 17.2259 54.4826 17.0091C54.9864 16.7872 55.541 16.6762 56.1465 16.6762C56.9554 16.6762 57.6699 16.8628 58.2899 17.236C58.91 17.6041 59.3944 18.0983 59.7431 18.7186C60.0919 19.3389 60.2663 20.0197 60.2663 20.761C60.2663 21.3006 60.167 21.8174 59.9684 22.3116C59.7698 22.8008 59.4864 23.2345 59.1182 23.6127C58.7501 23.9909 58.3142 24.291 57.8104 24.5129C57.3066 24.7347 56.752 24.8457 56.1465 24.8457ZM56.1465 22.7126C56.4856 22.7126 56.7907 22.6344 57.062 22.4781C57.3333 22.3167 57.5464 22.0898 57.7014 21.7973C57.8564 21.5048 57.9339 21.1594 57.9339 20.761C57.9339 20.3575 57.8564 20.0121 57.7014 19.7247C57.5512 19.4322 57.3405 19.2078 57.0693 19.0514C56.798 18.8901 56.4904 18.8094 56.1465 18.8094C55.8026 18.8094 55.495 18.8901 55.2237 19.0514C54.9525 19.2078 54.7393 19.4322 54.5843 19.7247C54.4293 20.0121 54.3518 20.3575 54.3518 20.761C54.3518 21.1594 54.4293 21.5048 54.5843 21.7973C54.7442 22.0898 54.9597 22.3167 55.231 22.4781C55.5023 22.6344 55.8074 22.7126 56.1465 22.7126Z" fill="#D6F050"/>
<path d="M64.5684 24.8457C63.895 24.8457 63.338 24.7095 62.8972 24.4372C62.4564 24.1599 62.127 23.7791 61.909 23.295C61.6959 22.8059 61.5893 22.2385 61.5893 21.593V16.9032H63.9725V21.2224C63.9725 21.646 64.0791 21.9813 64.2922 22.2284C64.5102 22.4755 64.8251 22.5991 65.2368 22.5991C65.5032 22.5991 65.7357 22.5386 65.9343 22.4175C66.1378 22.2915 66.2928 22.12 66.3994 21.9032C66.5108 21.6863 66.5665 21.4342 66.5665 21.1467V16.9032H68.9497V24.6188H66.8934V23.8018C66.6561 24.0792 66.3558 24.3238 65.9925 24.5356C65.6292 24.7423 65.1545 24.8457 64.5684 24.8457Z" fill="#D6F050"/>
<path d="M70.9288 24.6188V16.9032H73.3121V17.7201C73.5882 17.357 73.9151 17.0923 74.293 16.9259C74.6708 16.7595 75.068 16.6762 75.4846 16.6762C76.1821 16.6762 76.7561 16.82 77.2066 17.1074C77.6571 17.3898 77.9889 17.7579 78.202 18.2118C78.42 18.6606 78.529 19.1372 78.529 19.6415V24.6188H76.1458V20.4206C76.1458 19.9566 76.0271 19.591 75.7897 19.3238C75.5572 19.0565 75.2133 18.9228 74.758 18.9228C74.4673 18.9228 74.213 18.9884 73.9951 19.1195C73.7819 19.2506 73.6148 19.4372 73.4937 19.6793C73.3726 19.9163 73.3121 20.1886 73.3121 20.4962V24.6188H70.9288Z" fill="#D6F050"/>
<path d="M83.5322 24.8457C82.8299 24.8457 82.2001 24.6768 81.6431 24.3389C81.086 23.996 80.6477 23.5194 80.328 22.9092C80.0083 22.294 79.8484 21.5779 79.8484 20.761C79.8484 20.181 79.9404 19.644 80.1245 19.1498C80.3086 18.6556 80.5653 18.2244 80.8947 17.8563C81.2289 17.4831 81.6237 17.1931 82.079 16.9864C82.5344 16.7796 83.0333 16.6762 83.5758 16.6762C84.1426 16.6762 84.6536 16.7922 85.1089 17.0242C85.5643 17.2562 85.9614 17.6016 86.3005 18.0605L85.7556 18.6278V13.7262H88.1388V24.6188H86.0825V22.6142L86.4095 23.174C86.1964 23.6682 85.8404 24.0716 85.3414 24.3843C84.8425 24.6919 84.2394 24.8457 83.5322 24.8457ZM83.9754 22.7126C84.3145 22.7126 84.6197 22.6344 84.8909 22.4781C85.1622 22.3167 85.3753 22.0898 85.5303 21.7973C85.6853 21.5048 85.7629 21.1594 85.7629 20.761C85.7629 20.3575 85.6853 20.0121 85.5303 19.7247C85.3802 19.4322 85.1695 19.2078 84.8982 19.0514C84.6269 18.8901 84.3194 18.8094 83.9754 18.8094C83.6315 18.8094 83.3239 18.8901 83.0527 19.0514C82.7814 19.2078 82.5683 19.4322 82.4133 19.7247C82.2583 20.0121 82.1808 20.3575 82.1808 20.761C82.1808 21.1594 82.2583 21.5048 82.4133 21.7973C82.5731 22.0898 82.7887 22.3167 83.0599 22.4781C83.3312 22.6344 83.6364 22.7126 83.9754 22.7126Z" fill="#D6F050"/>
<path d="M90.1153 24.6188V16.9032H92.4986V24.6188H90.1153ZM91.307 15.761C90.9243 15.761 90.5901 15.6374 90.3043 15.3903C90.0233 15.1382 89.8828 14.8028 89.8828 14.3843C89.8828 13.9556 90.0233 13.6178 90.3043 13.3706C90.5901 13.1235 90.9243 13 91.307 13C91.6945 13 92.0287 13.1235 92.3096 13.3706C92.5906 13.6178 92.7311 13.9556 92.7311 14.3843C92.7311 14.8028 92.5906 15.1382 92.3096 15.3903C92.0287 15.6374 91.6945 15.761 91.307 15.761Z" fill="#D6F050"/>
<path d="M95.1038 24.6188V16.1997C95.1038 15.3777 95.3388 14.7221 95.8086 14.233C96.2833 13.7438 96.9591 13.4992 97.8358 13.4992C98.1216 13.4992 98.3977 13.5295 98.6641 13.59C98.9305 13.6505 99.1921 13.7463 99.4488 13.8775L99.1001 15.761C98.9596 15.6803 98.824 15.6248 98.6932 15.5946C98.5672 15.5643 98.4461 15.5492 98.3299 15.5492C98.0683 15.5492 97.86 15.6122 97.705 15.7383C97.5549 15.8643 97.4798 16.061 97.4798 16.3283V16.9032H99.289V18.8699H97.4798V24.6188H95.1038ZM93.8105 18.8699V16.9032H95.3218V18.8699H93.8105Z" fill="#D6F050"/>
<path d="M101.679 28C101.34 28 101.008 27.9647 100.683 27.8941C100.359 27.8235 100.061 27.71 99.7895 27.5537L100.291 25.4811C100.451 25.5668 100.625 25.6349 100.814 25.6853C101.003 25.7358 101.18 25.761 101.344 25.761C101.611 25.761 101.836 25.703 102.02 25.587C102.209 25.471 102.345 25.2794 102.427 25.0121L102.536 24.649L99.6588 16.9032H102.245L103.888 22.1906L105.479 16.9032H108L104.927 25.3828C104.675 26.0383 104.382 26.5552 104.047 26.9334C103.718 27.3167 103.352 27.589 102.95 27.7504C102.548 27.9168 102.124 28 101.679 28Z" fill="#D6F050"/>
</svg>
